<?xml version="1.0" standalone="no"?>
<!DOCTYPE svg PUBLIC "-//W3C//DTD SVG 20010904//EN"
 "http://www.w3.org/TR/2001/REC-SVG-20010904/DTD/svg10.dtd">
<svg version="1.0" xmlns="http://www.w3.org/2000/svg"
 width="238.000000pt" height="236.000000pt" viewBox="0 0 138.000000 136.000000"
 preserveAspectRatio="xMidYMid meet">

<g transform="translate(0.000000,136.000000) scale(0.100000,-0.100000)"
fill="#000000" stroke="none">
<path d="M695 1145 c25 -20 27 -24 11 -25 -16 0 -15 -3 8 -21 31 -24 34 -39 6
-32 -15 4 -20 0 -20 -15 0 -11 7 -25 15 -32 18 -15 19 -30 2 -30 -7 0 -20 13
-30 29 -35 60 -133 77 -205 36 l-27 -16 31 5 c16 3 37 6 45 8 9 2 13 -4 11
-14 -2 -15 5 -18 49 -18 45 0 50 -2 39 -15 -11 -13 -8 -15 14 -15 42 0 26 -24
-24 -36 -31 -7 -44 -14 -41 -25 2 -7 7 -27 10 -44 l7 -30 31 33 c26 29 34 32
51 23 12 -6 22 -25 26 -50 4 -26 13 -44 27 -52 18 -9 20 -8 15 8 -17 58 -18
76 -5 84 22 14 29 11 29 -12 0 -23 30 -79 42 -79 4 0 10 5 13 10 13 21 25 8
25 -27 0 -45 9 -83 20 -83 14 0 20 81 9 122 -6 22 -26 56 -45 76 -37 38 -44
58 -16 47 52 -23 93 -29 101 -17 6 10 15 7 37 -11 28 -24 103 -51 113 -42 9
10 -63 75 -104 95 -53 26 -129 26 -179 1 l-38 -20 6 27 c4 15 9 48 13 74 5 43
3 50 -25 78 -17 16 -41 30 -54 30 -22 0 -22 -1 7 -25z"/>
<path d="M515 879 c-11 -17 1 -21 15 -4 8 9 8 15 2 15 -6 0 -14 -5 -17 -11z"/>
<path d="M728 734 c6 -3 12 -14 12 -23 0 -14 6 -17 26 -13 21 4 23 7 12 17 -7
7 -24 16 -38 19 -14 3 -19 3 -12 0z"/>
<path d="M360 478 c0 -24 10 -41 45 -74 61 -59 113 -84 172 -83 l48 0 -49 25
c-78 38 -126 93 -126 144 0 17 -6 20 -45 20 -44 0 -45 -1 -45 -32z"/>
<path d="M917 459 c-33 -46 -110 -85 -197 -100 -57 -11 -62 -13 -45 -25 11 -9
45 -14 85 -14 110 0 238 55 271 116 12 23 11 27 -6 37 -11 7 -34 15 -51 18
-27 5 -34 1 -57 -32z"/>
</g>
</svg>
